<?xml version="1.0" encoding="UTF-8"?>
<!DOCTYPE svg PUBLIC "-//W3C//DTD SVG 1.0//EN" "http://www.w3.org/TR/2001/REC-SVG-20010904/DTD/svg10.dtd">
<!-- Creator: CorelDRAW X7 -->
<svg xmlns="http://www.w3.org/2000/svg" xml:space="preserve" width="21.964mm" height="19.7088mm" version="1.0" shape-rendering="geometricPrecision" text-rendering="geometricPrecision" image-rendering="optimizeQuality" fill-rule="evenodd" clip-rule="evenodd"
viewBox="0 0 17741 15919"
 xmlns:xlink="http://www.w3.org/1999/xlink">
 <defs>
      <linearGradient id="id0" gradientUnits="userSpaceOnUse" x1="8279.87" y1="6399.27" x2="8567.74" y2="7280.81">
       <stop offset="0" stop-opacity="1" stop-color="#333333"/>
       <stop offset="0.388235" stop-opacity="1" stop-color="#999999"/>
       <stop offset="1" stop-opacity="1" stop-color="white"/>
      </linearGradient>
 </defs>
 <g id="Capa_x0020_1">
  <metadata id="CorelCorpID_0Corel-Layer"/>
  <g id="_2275327160192">
   <g>
    <path fill="white" d="M635 15474c0,35 29,65 65,65 36,0 65,-30 65,-65l0 -1050c0,-35 -29,-66 -65,-66 -36,0 -65,31 -65,66l0 1050zm510 -554c0,-13 -1,-29 -5,-47 56,-42 118,-68 181,-68 98,0 150,70 150,193l0 475c0,34 23,62 64,62 40,0 63,-28 63,-62l0 -475c0,-183 -86,-307 -259,-307 -78,0 -161,23 -233,73 -18,-28 -39,-47 -68,-47 -34,0 -60,24 -60,57 0,16 8,26 11,32 15,25 29,25 29,114l0 553c0,34 21,62 64,62 42,0 63,-28 63,-62l0 -553zm1158 403c0,13 1,29 3,45 -54,35 -116,54 -179,54 -98,0 -150,-70 -150,-194l0 -475c0,-35 -23,-62 -64,-62 -40,0 -63,27 -63,62l0 475c0,184 86,308 259,308 76,0 159,-18 231,-58 18,29 39,48 70,48 34,0 60,-26 60,-57 0,-14 -8,-26 -11,-32 -13,-25 -29,-25 -29,-114l0 -570c0,-35 -21,-62 -64,-62 -42,0 -63,27 -63,62l0 570zm515 -403c0,-13 -1,-27 -3,-44 81,-60 140,-60 207,-58 34,1 63,-25 63,-65 0,-35 -19,-62 -84,-62 -62,0 -153,26 -224,70 -16,-26 -39,-44 -65,-44 -31,0 -58,23 -58,57 0,15 5,23 11,32 20,30 26,61 26,114l0 552c0,36 28,64 64,64 35,0 63,-28 63,-64l0 -552zm679 504c-118,0 -178,-59 -178,-150l0 -96c57,10 117,15 166,15 194,0 275,-92 275,-242 0,-161 -89,-265 -270,-265 -194,0 -298,119 -298,275l0 305c0,153 106,270 290,270 88,0 264,-26 264,-106 0,-29 -25,-57 -57,-57 -12,0 -20,4 -23,5 -57,26 -101,46 -169,46l0 0zm138 -473c0,67 -21,134 -145,134 -33,0 -111,-3 -171,-11l0 -124c0,-91 62,-148 168,-148 94,0 148,44 148,149zm1122 584c206,0 272,-136 272,-329l0 -212c0,-183 -88,-308 -259,-308 -85,0 -165,32 -238,71 -17,-22 -38,-39 -64,-39 -27,0 -57,23 -57,57 0,15 5,23 12,33 19,29 26,60 26,114l0 890c0,34 23,61 63,61 41,0 64,-27 64,-61l0 -308c58,19 125,31 181,31zm-181 -613c0,-20 -3,-42 -8,-67 55,-34 120,-55 176,-55 107,0 158,67 158,194l0 212c0,151 -43,218 -162,218 -40,0 -112,-10 -164,-34l0 -468zm1058 143c-51,-14 -106,-22 -165,-22 -192,0 -286,81 -286,241l0 6c0,147 81,246 249,246 88,0 161,-29 223,-86 24,50 68,81 122,81 36,0 73,-14 73,-55 0,-28 -16,-55 -47,-55 -6,0 -8,1 -13,1 -19,0 -29,-16 -29,-49l0 -358c0,-215 -82,-329 -285,-329 -113,0 -235,31 -228,106 1,24 14,54 45,54 18,0 38,-12 43,-14 35,-19 66,-34 123,-34 118,0 175,56 175,175l0 92zm-166 85c48,0 112,8 166,25l0 176c-57,48 -113,71 -183,71 -109,0 -143,-54 -143,-130l0 -7c0,-73 26,-135 160,-135zm1051 -376c2,-7 3,-13 3,-20 0,-37 -31,-63 -63,-63 -25,0 -49,14 -59,42l-177 618 -204 -618c-10,-28 -33,-42 -57,-42 -36,0 -64,24 -64,58 0,7 0,18 4,23l259 748c-49,151 -95,207 -197,212 -38,1 -61,31 -61,60 0,36 28,62 65,62 212,-5 274,-179 352,-433l199 -647zm284 146c0,-13 -1,-27 -3,-44 81,-60 140,-60 207,-58 34,1 63,-25 63,-65 0,-35 -19,-62 -84,-62 -62,0 -153,26 -224,70 -16,-26 -39,-44 -65,-44 -31,0 -58,23 -58,57 0,15 5,23 11,32 20,30 26,61 26,114l0 552c0,36 28,64 64,64 36,0 63,-28 63,-64l0 -552zm675 616c199,0 305,-127 305,-290l0 -272c0,-163 -106,-290 -305,-290 -198,0 -304,127 -304,290l0 272c0,163 106,290 304,290zm0 -117c-117,0 -177,-65 -177,-173l0 -273c0,-106 60,-171 177,-171 118,0 178,65 178,171l0 273c0,108 -60,173 -178,173zm506 -49c0,147 62,166 103,166 32,0 58,-26 58,-58 0,-13 -6,-25 -11,-31 -20,-20 -23,-41 -23,-77l0 -964c0,-36 -27,-64 -63,-64 -36,0 -64,29 -64,64l0 964zm379 0c0,147 62,166 102,166 33,0 59,-26 59,-58 0,-13 -7,-25 -11,-31 -20,-20 -23,-41 -23,-77l0 -964c0,-36 -28,-64 -64,-64 -36,0 -63,29 -63,64l0 964zm1765 103c0,34 21,62 63,62 43,0 64,-28 64,-62l0 -510c0,-165 -96,-277 -272,-277 -92,0 -168,31 -236,83 -41,-54 -100,-83 -189,-83 -85,0 -167,28 -238,73 -17,-26 -38,-44 -65,-44 -35,0 -61,25 -61,57 0,17 8,26 12,33 14,24 29,24 29,114l0 554c0,34 21,62 64,62 42,0 63,-28 63,-62l0 -554c0,-15 -2,-31 -5,-51 46,-34 117,-65 189,-65 116,0 135,82 135,197l0 473c0,34 22,62 64,62 42,0 63,-28 63,-62l0 -510c0,-26 -3,-51 -8,-74 39,-48 109,-86 179,-86 100,0 149,72 149,163l0 507zm781 -408c-51,-14 -106,-22 -165,-22 -192,0 -286,81 -286,241l0 6c0,147 81,246 249,246 88,0 161,-29 223,-86 24,50 68,81 122,81 36,0 73,-14 73,-55 0,-28 -16,-55 -47,-55 -6,0 -8,1 -13,1 -19,0 -29,-16 -29,-49l0 -358c0,-215 -82,-329 -285,-329 -113,0 -235,31 -228,106 1,24 14,54 45,54 18,0 38,-12 43,-14 35,-19 66,-34 124,-34 117,0 174,56 174,175l0 92zm-166 85c48,0 112,8 166,25l0 176c-57,48 -113,71 -183,71 -109,0 -143,-54 -143,-130l0 -7c0,-73 26,-135 160,-135zm686 -230c0,-13 -1,-29 -5,-47 56,-42 118,-68 181,-68 98,0 150,70 150,193l0 475c0,34 23,62 63,62 41,0 64,-28 64,-62l0 -475c0,-183 -86,-307 -259,-307 -78,0 -161,23 -233,73 -18,-28 -39,-47 -68,-47 -35,0 -61,24 -61,57 0,16 9,26 12,32 14,25 29,25 29,114l0 553c0,34 21,62 64,62 42,0 63,-28 63,-62l0 -553zm1109 145c-51,-14 -106,-22 -165,-22 -192,0 -287,81 -287,241l0 6c0,147 82,246 250,246 88,0 161,-29 223,-86 24,50 68,81 122,81 36,0 73,-14 73,-55 0,-28 -16,-55 -47,-55 -6,0 -8,1 -13,1 -20,0 -29,-16 -29,-49l0 -358c0,-215 -82,-329 -285,-329 -113,0 -235,31 -228,106 1,24 14,54 45,54 18,0 38,-12 43,-14 35,-19 66,-34 123,-34 118,0 175,56 175,175l0 92zm-166 85c48,0 112,8 166,25l0 176c-57,48 -113,71 -183,71 -109,0 -143,-54 -143,-130l0 -7c0,-73 26,-135 160,-135zm793 -464c-195,0 -291,129 -291,298 0,96 31,176 88,230 -49,44 -62,94 -62,133 0,38 11,88 49,126 -56,53 -86,115 -86,195 0,158 128,251 312,251 193,0 334,-101 334,-266 0,-162 -140,-239 -326,-239l-68 0c-36,0 -88,-15 -88,-72 0,-19 5,-47 20,-75 37,15 79,22 128,22 196,0 295,-127 295,-294l0 -101c0,-79 26,-97 88,-158 5,-5 12,-16 12,-32 0,-33 -27,-57 -61,-57 -36,0 -94,27 -130,94 -62,-36 -139,-55 -214,-55l0 0zm178 210l0 103c0,107 -52,172 -168,172 -122,0 -174,-73 -174,-184 0,-120 60,-187 181,-187 60,0 114,18 164,49 -1,14 -3,31 -3,47zm-225 635l69 0c130,0 195,39 195,126 0,98 -86,145 -203,145 -126,0 -189,-54 -189,-152 0,-52 16,-93 55,-127 21,5 46,8 73,8l0 0zm842 -107c-118,0 -178,-59 -178,-150l0 -96c57,10 117,15 166,15 194,0 276,-92 276,-242 0,-161 -90,-265 -271,-265 -194,0 -298,119 -298,275l0 305c0,153 106,270 290,270 88,0 264,-26 264,-106 0,-29 -25,-57 -57,-57 -12,0 -20,4 -23,5 -57,26 -101,46 -169,46l0 0zm138 -473c0,67 -21,134 -145,134 -33,0 -111,-3 -171,-11l0 -124c0,-91 62,-148 168,-148 94,0 148,44 148,149zm452 -31c0,-13 -2,-27 -3,-44 81,-60 140,-60 207,-58 34,1 63,-25 63,-65 0,-35 -19,-62 -84,-62 -62,0 -154,26 -224,70 -16,-26 -39,-44 -65,-44 -31,0 -58,23 -58,57 0,15 4,23 11,32 19,30 26,61 26,114l0 552c0,36 28,64 63,64 36,0 64,-28 64,-64l0 -552zm1317 145c-50,-14 -106,-22 -164,-22 -193,0 -287,81 -287,241l0 6c0,147 81,246 249,246 88,0 161,-29 223,-86 25,50 69,81 122,81 36,0 74,-14 74,-55 0,-28 -17,-55 -48,-55 -6,0 -8,1 -13,1 -19,0 -29,-16 -29,-49l0 -358c0,-215 -81,-329 -285,-329 -112,0 -235,31 -228,106 2,24 15,54 46,54 17,0 37,-12 42,-14 36,-19 67,-34 124,-34 117,0 174,56 174,175l0 92zm-166 85c49,0 112,8 166,25l0 176c-57,48 -112,71 -182,71 -110,0 -144,-54 -144,-130l0 -7c0,-73 26,-135 160,-135zm867 385c207,0 272,-136 272,-329l0 -212c0,-183 -88,-308 -259,-308 -84,0 -164,32 -238,71 -16,-22 -37,-39 -63,-39 -28,0 -57,23 -57,57 0,15 5,23 11,33 20,29 26,60 26,114l0 890c0,34 23,61 64,61 41,0 63,-27 63,-61l0 -308c59,19 126,31 181,31zm-181 -613c0,-20 -3,-42 -8,-67 56,-34 121,-55 176,-55 108,0 158,67 158,194l0 212c0,151 -42,218 -161,218 -41,0 -112,-10 -165,-34l0 -468zm967 613c207,0 272,-136 272,-329l0 -212c0,-183 -88,-308 -259,-308 -85,0 -164,32 -238,71 -16,-22 -37,-39 -63,-39 -28,0 -57,23 -57,57 0,15 5,23 11,33 20,29 26,60 26,114l0 890c0,34 23,61 64,61 40,0 63,-27 63,-61l0 -308c59,19 126,31 181,31zm-181 -613c0,-20 -3,-42 -8,-67 56,-34 121,-55 176,-55 108,0 158,67 158,194l0 212c0,151 -42,218 -161,218 -41,0 -113,-10 -165,-34l0 -468z"/>
    <path fill="white" d="M663 13480c0,61 50,111 111,111 61,0 111,-50 111,-111l0 -1636 561 0c55,0 102,-45 102,-100 0,-55 -47,-102 -102,-102l-1344 0c-55,0 -102,47 -102,102 0,55 47,100 102,100l561 0 0 1636zm2113 0c0,61 49,111 107,111 61,0 111,-50 111,-111l0 -1741c0,-61 -50,-111 -111,-111 -58,0 -107,50 -107,111l0 1741zm1736 3c0,61 47,108 105,108 61,0 108,-47 108,-108l0 -1443 616 907c25,36 56,55 94,55 39,0 67,-19 91,-55l620 -910 0 1443c0,58 49,111 110,111 58,0 108,-50 108,-111l0 -1739c0,-58 -50,-107 -108,-107l-25 0c-44,0 -80,22 -102,58l-691 1039 -691 -1039c-22,-34 -55,-58 -102,-58l-25 0c-58,0 -108,49 -108,107l0 1742zm3403 94l1217 0c55,0 99,-44 99,-99 0,-56 -44,-100 -99,-100l-1106 0 0 -677 967 0c56,0 100,-45 100,-100 0,-52 -44,-99 -100,-99l-967 0 0 -661 1092 0c55,0 99,-44 99,-100 0,-55 -44,-99 -99,-99l-1203 0c-58,0 -108,50 -108,110l0 1714c0,61 50,111 108,111zm3365 33c290,0 519,-97 677,-193 102,-61 149,-147 149,-271l0 -470c0,-119 -94,-213 -213,-213l-486 0c-102,0 -185,83 -185,185 0,102 83,183 185,183l287 0 0 276c-107,77 -246,116 -400,116 -343,0 -587,-260 -587,-614l0 -5c0,-329 246,-603 556,-603 183,0 307,50 423,133 30,22 69,44 130,44 116,0 210,-94 210,-210 0,-83 -47,-141 -88,-171 -175,-122 -368,-188 -661,-188 -586,0 -1015,450 -1015,1000l0 6c0,572 415,995 1018,995zm2261 -33l1087 0c105,0 190,-83 190,-188 0,-105 -85,-191 -190,-191l-877 0 0 -406 738 0c105,0 191,-83 191,-188 0,-105 -86,-191 -191,-191l-738 0 0 -392 863 0c105,0 191,-83 191,-188 0,-105 -86,-191 -191,-191l-1073 0c-119,0 -213,94 -213,213l0 1509c0,119 94,213 213,213zm2480 -194c0,117 94,211 210,211 116,0 210,-94 210,-211l0 -1036 852 1117c58,74 119,124 221,124l14 0c119,0 213,-94 213,-213l0 -1540c0,-116 -94,-210 -210,-210 -117,0 -211,94 -211,210l0 998 -821 -1078c-58,-74 -118,-124 -221,-124l-44 0c-119,0 -213,94 -213,213l0 1539z"/>
   </g>
   <g>
    <g>
     <path fill="url(#id0)" fill-rule="nonzero" d="M9668 6235l-882 -2473 -363 0c-686,0 -1244,557 -1244,1244l0 3668c0,687 557,1244 1244,1244 687,0 1244,-557 1244,-1244l0 -671 1 -1768z"/>
     <path fill="#FF9933" fill-rule="nonzero" d="M7179 6906c0,-591 543,-671 1298,-671l2893 0c686,0 1244,-533 1244,-1234 0,-655 -506,-1192 -1149,-1241l0 0c-10,0 -21,-1 -31,-2l0 0c-11,0 -21,0 -32,-1l0 0c-11,0 -21,0 -32,0l-2947 0c-696,0 -1244,569 -1244,1244l0 1905z"/>
    </g>
    <circle fill="#FF9933" cx="8423" cy="1366" r="1366"/>
   </g>
  </g>
 </g>
</svg>
